<svg width="48" height="38" viewBox="0 0 48 38" fill="none" xmlns="http://www.w3.org/2000/svg">
<path d="M10.9199 37.24C8.77326 37.24 6.90659 36.68 5.31992 35.56C3.73326 34.3467 2.51992 32.7133 1.67992 30.66C0.839922 28.6067 0.419922 26.2733 0.419922 23.66C0.419922 20.4867 0.933255 17.4533 1.95992 14.56C3.07992 11.5733 4.75992 8.82 6.99992 6.3C9.23992 3.78 12.1333 1.68 15.6799 0L21.5599 5.46C19.0399 6.30001 16.7999 7.46667 14.8399 8.96C12.9733 10.4533 11.4333 12.1333 10.2199 14C9.09992 15.8667 8.30659 17.78 7.83992 19.74L8.39992 20.02C8.77326 19.74 9.23992 19.5067 9.79992 19.32C10.3599 19.1333 11.1999 19.04 12.3199 19.04C13.4399 19.04 14.6066 19.3667 15.8199 20.02C17.0333 20.6733 18.0133 21.6533 18.7599 22.96C19.5999 24.1733 20.0199 25.8067 20.0199 27.86C20.0199 29.54 19.5999 31.08 18.7599 32.48C18.0133 33.88 16.9399 35.0467 15.5399 35.98C14.1399 36.82 12.5999 37.24 10.9199 37.24ZM37.2399 37.24C35.0933 37.24 33.2266 36.68 31.6399 35.56C30.0533 34.3467 28.8399 32.7133 27.9999 30.66C27.1599 28.6067 26.7399 26.2733 26.7399 23.66C26.7399 20.4867 27.2533 17.4533 28.2799 14.56C29.3999 11.5733 31.0799 8.82 33.3199 6.3C35.5599 3.78 38.4533 1.68 41.9999 0L47.8799 5.46C45.3599 6.30001 43.1199 7.46667 41.1599 8.96C39.2933 10.4533 37.7533 12.1333 36.5399 14C35.4199 15.8667 34.6266 17.78 34.1599 19.74L34.7199 20.02C35.0933 19.74 35.5599 19.5067 36.1199 19.32C36.6799 19.1333 37.5199 19.04 38.6399 19.04C39.7599 19.04 40.9266 19.3667 42.1399 20.02C43.3533 20.6733 44.3333 21.6533 45.0799 22.96C45.9199 24.1733 46.3399 25.8067 46.3399 27.86C46.3399 29.54 45.9199 31.08 45.0799 32.48C44.3333 33.88 43.2599 35.0467 41.8599 35.98C40.4599 36.82 38.9199 37.24 37.2399 37.24Z" fill="#1B1A19"/>
</svg>
